<?xml version="1.0" encoding="UTF-8" standalone="no"?>
<!-- Created with Inkscape (http://www.inkscape.org/) -->

<svg
        xmlns:dc="http://purl.org/dc/elements/1.1/"
        xmlns:cc="http://creativecommons.org/ns#"
        xmlns:rdf="http://www.w3.org/1999/02/22-rdf-syntax-ns#"
        xmlns="http://www.w3.org/2000/svg"
        xmlns:sodipodi="http://sodipodi.sourceforge.net/DTD/sodipodi-0.dtd"
        xmlns:inkscape="http://www.inkscape.org/namespaces/inkscape"
        id="svg3879"
        version="1.1"
        inkscape:version="0.48.4 r9939"
        width="300"
        height="200"
        xml:space="preserve"
        sodipodi:docname="logo_sugarcube_cmyk_pos_neg_vecto.ai"><metadata
     id="metadata3885"><rdf:RDF><cc:Work
         rdf:about=""><dc:format>image/svg+xml</dc:format><dc:type
           rdf:resource="http://purl.org/dc/dcmitype/StillImage" /><dc:title></dc:title></cc:Work></rdf:RDF></metadata><defs
     id="defs3883"><clipPath
       clipPathUnits="userSpaceOnUse"
       id="clipPath3895"><path
         d="m 0,841.89 595.275,0 L 595.275,0 0,0 0,841.89 z"
         id="path3897"
         inkscape:connector-curvature="0" /></clipPath></defs><sodipodi:namedview
     pagecolor="#ffffff"
     bordercolor="#666666"
     borderopacity="1"
     objecttolerance="10"
     gridtolerance="10"
     guidetolerance="10"
     inkscape:pageopacity="0"
     inkscape:pageshadow="2"
     inkscape:window-width="1353"
     inkscape:window-height="945"
     id="namedview3881"
     showgrid="false"
     inkscape:zoom="1.4142136"
     inkscape:cx="112.64853"
     inkscape:cy="312.4923"
     inkscape:window-x="0"
     inkscape:window-y="0"
     inkscape:window-maximized="0"
     inkscape:current-layer="g3887" /><g
     id="g3887"
     inkscape:groupmode="layer"
     inkscape:label="logo_sugarcube_cmyk_pos_neg_vecto"
     transform="matrix(1.25,0,0,-1.25,0,199.99995)"><path
       d="m 254.20957,-6.6412965 -275.446997,0 0,169.2899965 275.446997,0 0,-169.2899965 z"
       style="fill:#000f24;fill-opacity:1;fill-rule:nonzero;stroke:none"
       id="path3889"
       inkscape:connector-curvature="0" /><g
       id="g5611"
       transform="translate(-48.648946,-354.11907)"><g
         transform="translate(87.5786,395.582)"
         id="g4319"><path
           inkscape:connector-curvature="0"
           id="path4321"
           style="fill:#c8d5c7;fill-opacity:1;fill-rule:nonzero;stroke:none"
           d="m 0,0 c -0.124,3.221 -2.602,4.666 -5.574,4.666 -2.313,0 -5.038,-0.908 -5.038,-3.675 0,-2.312 2.643,-3.138 4.418,-3.592 l 3.468,-0.785 c 2.974,-0.454 6.07,-2.188 6.07,-5.904 0,-4.625 -4.583,-6.4 -8.547,-6.4 -4.955,0 -8.34,2.312 -8.754,7.515 l 2.602,0 c 0.207,-3.51 2.808,-5.327 6.276,-5.327 2.436,0 5.822,1.074 5.822,4.047 0,2.477 -2.312,3.303 -4.666,3.881 l -3.344,0.743 c -3.386,0.909 -5.946,2.065 -5.946,5.698 0,4.336 4.253,5.987 8.01,5.987 C -0.95,6.854 2.436,4.625 2.601,0 L 0,0 z" /></g><g
         transform="translate(111.2764,380.5112)"
         id="g4323"><path
           inkscape:connector-curvature="0"
           id="path4325"
           style="fill:#c8d5c7;fill-opacity:1;fill-rule:nonzero;stroke:none"
           d="m 0,0 -2.395,0 0,3.84 -0.083,0 c -1.362,-2.849 -4.17,-4.459 -7.349,-4.459 -5.368,0 -7.474,3.138 -7.474,8.093 l 0,13.832 2.602,0 0,-13.874 c 0.123,-3.84 1.569,-5.863 5.698,-5.863 4.459,0 6.399,4.212 6.399,8.547 l 0,11.19 2.602,0 L 0,0 z" /></g><g
         transform="translate(131.1758,391.4121)"
         id="g4327"><path
           inkscape:connector-curvature="0"
           id="path4329"
           style="fill:#c8d5c7;fill-opacity:1;fill-rule:nonzero;stroke:none"
           d="m 0,0 c 0,4.17 -1.941,8.836 -6.854,8.836 -4.955,0 -7.02,-4.418 -7.02,-8.836 0,-4.294 2.23,-8.465 7.02,-8.465 C -2.354,-8.465 0,-4.336 0,0 m 2.601,-9.167 c -0.041,-6.358 -2.477,-10.24 -9.455,-10.24 -4.253,0 -8.465,1.9 -8.836,6.442 l 2.601,0 c 0.578,-3.139 3.344,-4.253 6.235,-4.253 4.789,0 6.854,2.849 6.854,8.051 l 0,2.891 -0.083,0 c -1.197,-2.601 -3.716,-4.377 -6.771,-4.377 -6.813,0 -9.621,4.872 -9.621,10.942 0,5.863 3.468,10.735 9.621,10.735 3.096,0 5.739,-1.941 6.771,-4.294 l 0.083,0 0,3.675 2.601,0 0,-19.572 z" /></g><g
         transform="translate(151.9419,392.1553)"
         id="g4331"><path
           inkscape:connector-curvature="0"
           id="path4333"
           style="fill:#c8d5c7;fill-opacity:1;fill-rule:nonzero;stroke:none"
           d="m 0,0 -0.083,0 c -0.33,-0.62 -1.486,-0.826 -2.188,-0.95 -4.418,-0.784 -9.91,-0.743 -9.91,-4.913 0,-2.602 2.313,-4.212 4.749,-4.212 3.964,0 7.474,2.519 7.432,6.689 L 0,0 z m -13.874,3.138 c 0.249,4.996 3.758,7.143 8.63,7.143 3.758,0 7.846,-1.156 7.846,-6.854 l 0,-11.314 c 0,-0.99 0.495,-1.569 1.527,-1.569 0.289,0 0.62,0.083 0.826,0.165 l 0,-2.188 c -0.578,-0.124 -0.991,-0.165 -1.693,-0.165 -2.642,0 -3.055,1.486 -3.055,3.716 l -0.083,0 c -1.817,-2.766 -3.675,-4.335 -7.763,-4.335 -3.922,0 -7.143,1.94 -7.143,6.235 0,5.986 5.822,6.193 11.438,6.854 C -1.197,1.073 0,1.362 0,3.716 c 0,3.51 -2.519,4.377 -5.574,4.377 -3.22,0 -5.615,-1.487 -5.698,-4.955 l -2.602,0 z" /></g><g
         transform="translate(159.3311,401.8169)"
         id="g4335"><path
           inkscape:connector-curvature="0"
           id="path4337"
           style="fill:#c8d5c7;fill-opacity:1;fill-rule:nonzero;stroke:none"
           d="m 0,0 2.395,0 0,-4.996 0.082,0 c 1.321,3.427 4.212,5.45 8.052,5.285 l 0,-2.601 C 5.822,-2.064 2.601,-5.533 2.601,-9.951 l 0,-11.355 -2.601,0 L 0,0 z" /></g><g
         transform="translate(186.2085,394.3433)"
         id="g4339"><path
           inkscape:connector-curvature="0"
           id="path4341"
           style="fill:#c8d5c7;fill-opacity:1;fill-rule:nonzero;stroke:none"
           d="m 0,0 c -0.372,2.395 -1.899,3.675 -4.335,3.675 -3.758,0 -4.997,-3.799 -4.997,-6.937 0,-3.055 1.198,-6.73 4.873,-6.73 2.725,0 4.294,1.734 4.666,4.335 l 5.656,0 C 5.12,-11.313 1.198,-14.41 -4.418,-14.41 c -6.441,0 -10.777,4.542 -10.777,10.942 0,6.648 3.964,11.561 10.901,11.561 C 0.743,8.093 5.368,5.451 5.74,0 L 0,0 z" /></g><g
         transform="translate(214.3657,380.5112)"
         id="g4343"><path
           inkscape:connector-curvature="0"
           id="path4345"
           style="fill:#c8d5c7;fill-opacity:1;fill-rule:nonzero;stroke:none"
           d="m 0,0 -5.574,0 0,2.973 -0.124,0 c -1.487,-2.395 -4.047,-3.551 -6.524,-3.551 -6.235,0 -7.804,3.51 -7.804,8.795 l 0,13.13 5.863,0 0,-12.056 c 0,-3.51 1.033,-5.245 3.758,-5.245 3.179,0 4.542,1.776 4.542,6.111 l 0,11.19 5.863,0 L 0,0 z" /></g><g
         transform="translate(229.4751,398.0186)"
         id="g4347"><path
           inkscape:connector-curvature="0"
           id="path4349"
           style="fill:#c8d5c7;fill-opacity:1;fill-rule:nonzero;stroke:none"
           d="m 0,0 c -3.469,0 -4.997,-3.262 -4.997,-6.854 0,-3.551 1.528,-6.813 4.997,-6.813 3.468,0 4.996,3.262 4.996,6.813 C 4.996,-3.262 3.468,0 0,0 m -10.653,11.974 5.863,0 0,-10.736 0.082,0 c 1.446,2.189 4.088,3.18 6.731,3.18 4.253,0 8.836,-3.427 8.836,-11.231 0,-7.845 -4.583,-11.272 -8.836,-11.272 -3.138,0 -5.739,0.949 -7.02,3.303 l -0.082,0 0,-2.725 -5.574,0 0,29.481 z" /></g><g
         transform="translate(257.3843,393.4766)"
         id="g4351"><path
           inkscape:connector-curvature="0"
           id="path4353"
           style="fill:#c8d5c7;fill-opacity:1;fill-rule:nonzero;stroke:none"
           d="M 0,0 C -0.537,2.973 -1.817,4.542 -4.666,4.542 -8.382,4.542 -9.456,1.651 -9.538,0 L 0,0 z m -9.538,-3.716 c 0.165,-3.717 1.982,-5.409 5.244,-5.409 2.354,0 4.253,1.445 4.625,2.766 l 5.161,0 c -1.652,-5.037 -5.161,-7.184 -9.992,-7.184 -6.731,0 -10.901,4.624 -10.901,11.23 0,6.4 4.418,11.273 10.901,11.273 7.267,0 10.776,-6.111 10.363,-12.676 l -15.401,0 z" /></g><g
         transform="translate(184.3672,463.2261)"
         id="g4355"><path
           inkscape:connector-curvature="0"
           id="path4357"
           style="fill:#007c8d;fill-opacity:1;fill-rule:nonzero;stroke:none"
           d="m 0,0 -11.014,-6.36 c -1.064,-0.613 -1.064,-1.619 0,-2.231 L 0,-14.953 c 1.066,-0.613 1.935,-0.11 1.935,1.118 l 0,12.718 C 1.935,0.111 1.066,0.614 0,0" /></g><g
         transform="translate(189.7236,448.3682)"
         id="g4359"><path
           inkscape:connector-curvature="0"
           id="path4361"
           style="fill:#007c8d;fill-opacity:1;fill-rule:nonzero;stroke:none"
           d="m 0,0 10.855,6.267 c 1.063,0.612 1.063,1.618 0,2.231 L 0,14.766 c -1.063,0.615 -1.934,0.112 -1.934,-1.116 l 0,-12.534 C -1.934,-0.112 -1.063,-0.615 0,0" /></g><g
         transform="translate(202.8081,473.873)"
         id="g4363"><path
           inkscape:connector-curvature="0"
           id="path4365"
           style="fill:#007c8d;fill-opacity:1;fill-rule:nonzero;stroke:none"
           d="m 0,0 -12.421,-7.171 c -1.063,-0.614 -1.063,-1.619 0,-2.232 l 11.679,-6.743 c 1.064,-0.614 2.675,0.314 2.675,1.543 l 0,13.487 C 1.933,0.111 1.063,0.613 0,0" /></g><g
         transform="translate(184.3672,443.5581)"
         id="g4367"><path
           inkscape:connector-curvature="0"
           id="path4369"
           style="fill:#007c8d;fill-opacity:1;fill-rule:nonzero;stroke:none"
           d="m 0,0 -11.187,-6.459 c -1.063,-0.614 -1.063,-1.619 0,-2.233 L 0,-15.152 c 1.066,-0.614 1.935,-0.111 1.935,1.115 l 0,12.922 C 1.935,0.112 1.066,0.614 0,0" /></g><g
         transform="translate(172.6089,438.4863)"
         id="g4371"><path
           inkscape:connector-curvature="0"
           id="path4373"
           style="fill:#007c8d;fill-opacity:1;fill-rule:nonzero;stroke:none"
           d="m 0,0 10.936,6.314 c 1.062,0.614 1.062,1.618 0,2.232 L 0,14.859 c -1.063,0.613 -1.934,0.111 -1.934,-1.116 l 0,-12.627 C -1.934,-0.111 -1.063,-0.614 0,0" /></g><g
         transform="translate(184.3672,426.687)"
         id="g4375"><path
           inkscape:connector-curvature="0"
           id="path4377"
           style="fill:#007c8d;fill-opacity:1;fill-rule:nonzero;stroke:none"
           d="m 0,0 -11.758,6.791 c -1.063,0.614 -1.934,0.112 -1.934,-1.116 l 0,-14.142 c 0,-1.23 0.871,-1.732 1.934,-1.117 L 0,-2.794 C 1.066,-2.18 1.066,-0.614 0,0" /></g><g
         transform="translate(202.0605,436.3408)"
         id="g4379"><path
           inkscape:connector-curvature="0"
           id="path4381"
           style="fill:#007c8d;fill-opacity:1;fill-rule:nonzero;stroke:none"
           d="m 0,0 -12.337,7.124 c -1.063,0.615 -1.934,0.112 -1.934,-1.116 l 0,-13.685 c 0,-1.227 1.36,-2.012 2.422,-1.398 L 0,-2.232 C 1.064,-1.619 1.064,-0.614 0,0" /></g><g
         transform="translate(202.0664,453.7764)"
         id="g4383"><path
           inkscape:connector-curvature="0"
           id="path4385"
           style="fill:#007c8d;fill-opacity:1;fill-rule:nonzero;stroke:none"
           d="m 0,0 -11.68,-6.744 c -1.062,-0.614 -1.062,-1.618 0,-2.232 l 12.422,-7.171 c 1.063,-0.615 1.933,-0.111 1.933,1.115 l 0,13.486 C 2.675,-0.318 1.064,0.614 0,0" /></g><g
         transform="translate(184.3672,483.0723)"
         id="g4387"><path
           inkscape:connector-curvature="0"
           id="path4389"
           style="fill:#80d4d8;fill-opacity:1;fill-rule:nonzero;stroke:none"
           d="m 0,0 -11.167,-6.447 c -1.064,-0.615 -1.064,-1.618 0,-2.233 L 0,-15.127 c 1.066,-0.615 1.935,-0.112 1.935,1.114 l 0,12.896 C 1.935,0.111 1.066,0.613 0,0" /></g><g
         transform="translate(172.6089,458.1563)"
         id="g4391"><path
           inkscape:connector-curvature="0"
           id="path4393"
           style="fill:#80d4d8;fill-opacity:1;fill-rule:nonzero;stroke:none"
           d="m 0,0 10.936,6.313 c 1.062,0.614 1.062,1.619 0,2.232 L 0,14.858 c -1.063,0.615 -1.934,0.112 -1.934,-1.117 l 0,-12.624 C -1.934,-0.112 -1.063,-0.615 0,0" /></g><g
         transform="translate(172.6089,478.0015)"
         id="g4395"><path
           inkscape:connector-curvature="0"
           id="path4397"
           style="fill:#80d4d8;fill-opacity:1;fill-rule:nonzero;stroke:none"
           d="m 0,0 11.758,6.789 c 1.066,0.614 1.066,2.206 0,2.819 L 0,16.397 c -1.063,0.613 -1.934,0.112 -1.934,-1.116 l 0,-14.164 C -1.934,-0.112 -1.063,-0.613 0,0" /></g><g
         transform="translate(189.7236,468.0371)"
         id="g4399"><path
           inkscape:connector-curvature="0"
           id="path4401"
           style="fill:#80d4d8;fill-opacity:1;fill-rule:nonzero;stroke:none"
           d="m 0,0 12.341,7.125 c 1.063,0.614 1.063,1.618 0,2.232 l -11.834,6.83 c -1.063,0.615 -2.441,-0.181 -2.441,-1.408 l 0,-13.664 C -1.934,-0.112 -1.063,-0.615 0,0" /></g><g
         transform="translate(149.48,484.1367)"
         id="g4403"><path
           inkscape:connector-curvature="0"
           id="path4405"
           style="fill:#80d4d8;fill-opacity:1;fill-rule:nonzero;stroke:none"
           d="m 0,0 -11.68,-6.742 c -1.064,-0.614 -1.064,-1.618 0,-2.233 L 0.661,-16.1 c 1.062,-0.615 1.931,-0.112 1.931,1.116 l 0,13.486 C 2.592,-0.27 1.063,0.614 0,0" /></g><g
         transform="translate(155.4946,468.1206)"
         id="g4407"><path
           inkscape:connector-curvature="0"
           id="path4409"
           style="fill:#80d4d8;fill-opacity:1;fill-rule:nonzero;stroke:none"
           d="m 0,0 10.862,6.272 c 1.062,0.614 1.062,1.618 0,2.232 L 0,14.775 c -1.064,0.614 -1.934,0.112 -1.934,-1.116 l 0,-12.542 C -1.934,-0.111 -1.064,-0.614 0,0" /></g><g
         transform="translate(167.2549,494.3984)"
         id="g4411"><path
           inkscape:connector-curvature="0"
           id="path4413"
           style="fill:#80d4d8;fill-opacity:1;fill-rule:nonzero;stroke:none"
           d="m 0,0 -11.76,-6.789 c -1.064,-0.613 -1.064,-2.38 0,-2.995 L 0,-16.574 c 1.063,-0.614 1.932,-0.111 1.932,1.116 l 0,14.342 C 1.932,0.112 1.063,0.613 0,0" /></g><g
         transform="translate(167.2549,473.1924)"
         id="g4415"><path
           inkscape:connector-curvature="0"
           id="path4417"
           style="fill:#80d4d8;fill-opacity:1;fill-rule:nonzero;stroke:none"
           d="m 0,0 -11.089,-6.403 c -1.064,-0.615 -1.064,-1.618 0,-2.232 L 0,-15.036 c 1.063,-0.615 1.932,-0.112 1.932,1.117 l 0,12.803 C 1.932,0.111 1.063,0.614 0,0" /></g><g
         transform="translate(155.4946,428.6074)"
         id="g4419"><path
           inkscape:connector-curvature="0"
           id="path4421"
           style="fill:#0dafc7;fill-opacity:1;fill-rule:nonzero;stroke:none"
           d="m 0,0 10.843,6.259 c 1.063,0.614 1.063,1.618 0,2.232 L 0,14.75 c -1.064,0.615 -1.934,0.112 -1.934,-1.117 l 0,-12.518 C -1.934,-0.111 -1.064,-0.615 0,0" /></g><g
         transform="translate(167.2549,453.3457)"
         id="g4423"><path
           inkscape:connector-curvature="0"
           id="path4425"
           style="fill:#0dafc7;fill-opacity:1;fill-rule:nonzero;stroke:none"
           d="m 0,0 -11.109,-6.413 c -1.062,-0.615 -1.062,-1.618 0,-2.232 L 0,-15.058 c 1.063,-0.614 1.932,-0.112 1.932,1.117 l 0,12.824 C 1.932,0.111 1.063,0.613 0,0" /></g><g
         transform="translate(155.4946,448.2734)"
         id="g4427"><path
           inkscape:connector-curvature="0"
           id="path4429"
           style="fill:#0dafc7;fill-opacity:1;fill-rule:nonzero;stroke:none"
           d="m 0,0 11.015,6.361 c 1.064,0.613 1.064,1.618 0,2.232 L 0,14.953 c -1.064,0.613 -1.934,0.111 -1.934,-1.117 l 0,-12.718 C -1.934,-0.111 -1.064,-0.613 0,0" /></g><g
         transform="translate(167.2549,433.6763)"
         id="g4431"><path
           inkscape:connector-curvature="0"
           id="path4433"
           style="fill:#0dafc7;fill-opacity:1;fill-rule:nonzero;stroke:none"
           d="m 0,0 -11.76,-6.789 c -1.064,-0.612 -1.064,-2.38 0,-2.995 L 0,-16.574 c 1.063,-0.614 1.932,-0.112 1.932,1.117 l 0,14.342 C 1.932,0.112 1.063,0.614 0,0" /></g><g
         transform="translate(150.1406,443.4644)"
         id="g4435"><path
           inkscape:connector-curvature="0"
           id="path4437"
           style="fill:#0dafc7;fill-opacity:1;fill-rule:nonzero;stroke:none"
           d="m 0,0 -12.339,-7.124 c -1.064,-0.614 -1.064,-1.618 0,-2.232 L -0.661,-16.1 c 1.063,-0.614 2.593,0.271 2.593,1.498 l 0,13.486 C 1.932,0.112 1.063,0.616 0,0" /></g><g
         transform="translate(149.3037,444.7012)"
         id="g4439"><path
           inkscape:connector-curvature="0"
           id="path4441"
           style="fill:#0dafc7;fill-opacity:1;fill-rule:nonzero;stroke:none"
           d="M 0,0 C 1.062,0.614 1.062,1.617 0,2.232 L -11.834,9.063 C -12.897,9.677 -14.18,8.935 -14.18,7.708 l 0,-13.662 c 0,-1.229 0.87,-1.732 1.932,-1.116 L 0,0 z" /></g><g
         transform="translate(150.1406,463.3105)"
         id="g4443"><path
           inkscape:connector-curvature="0"
           id="path4445"
           style="fill:#0dafc7;fill-opacity:1;fill-rule:nonzero;stroke:none"
           d="m 0,0 -11.182,-6.455 c -1.063,-0.613 -1.063,-1.617 0,-2.232 L 0,-15.143 c 1.063,-0.613 1.932,-0.11 1.932,1.117 l 0,12.91 C 1.932,0.112 1.063,0.614 0,0" /></g><g
         transform="translate(137.4697,457.7163)"
         id="g4447"><path
           inkscape:connector-curvature="0"
           id="path4449"
           style="fill:#0dafc7;fill-opacity:1;fill-rule:nonzero;stroke:none"
           d="m 0,0 11.852,6.841 c 1.064,0.615 1.064,1.617 0,2.232 l -12.266,7.084 c -1.062,0.613 -1.932,0.111 -1.932,-1.116 l 0,-13.687 C -2.346,0.126 -1.063,-0.615 0,0" /></g></g></g></svg>